<svg version="1.1" id="Layer_1" xmlns="http://www.w3.org/2000/svg" xmlns:xlink="http://www.w3.org/1999/xlink" x="0px" y="0px"
	 width="100%" viewBox="0 0 1024 1024" enable-background="new 0 0 1024 1024" xml:space="preserve">
<path fill="#000000" opacity="1.000000" stroke="none" 
	d="
M93.150726,490.818604 
	C92.854538,493.250061 92.470512,495.221161 92.371460,497.206451 
	C91.992622,504.800171 92.051064,505.060394 84.685318,505.750732 
	C67.462723,507.364960 50.220478,508.783020 32.973495,510.116302 
	C26.932867,510.583313 26.651581,510.078430 27.396761,504.130493 
	C28.909414,492.056732 28.908834,491.996735 41.215897,491.878540 
	C51.024723,491.784332 60.835178,491.859589 70.712120,491.097290 
	C58.830479,487.192444 47.095512,483.358826 35.273815,479.837250 
	C30.131712,478.305481 29.392202,475.442017 29.982765,470.945679 
	C30.556725,466.575836 30.495184,462.430634 36.819347,462.115875 
	C49.088776,461.505188 61.133381,458.517090 73.608246,457.556274 
	C66.787254,456.122650 59.960110,454.717468 53.147152,453.246582 
	C47.452679,452.017151 41.787945,450.647461 36.084171,449.464661 
	C33.116226,448.849182 32.008121,447.488129 32.342556,444.252655 
	C33.651115,431.593201 33.559860,431.515778 45.836037,434.621735 
	C61.001297,438.458557 76.113152,442.508514 91.298355,446.263031 
	C95.005096,447.179504 96.776566,448.861298 96.343056,452.786438 
	C95.850685,457.244537 95.543686,461.725189 95.245758,466.201996 
	C95.047577,469.179779 93.240021,470.032288 90.604057,470.305908 
	C80.379417,471.367310 70.165482,472.531860 58.785675,473.786041 
	C68.832420,476.581940 77.765137,479.496033 86.903122,481.450378 
	C92.396233,482.625183 94.239929,485.168060 93.150726,490.818604 
z"/>
<path fill="#000000" opacity="1.000000" stroke="none" 
	d="
M655.454956,910.344238 
	C658.351685,909.369324 659.555664,910.631287 660.220642,912.880005 
	C665.600952,931.074463 670.965454,949.273743 676.419067,967.446228 
	C677.164795,969.931335 676.416504,971.254028 674.066284,971.950012 
	C670.395142,973.036926 666.716736,974.101929 663.066895,975.256531 
	C660.569092,976.046814 659.029907,974.811768 657.454041,973.105225 
	C648.990662,963.939880 640.459167,954.837219 631.335754,945.052917 
	C635.867310,955.118835 638.919250,964.941101 641.876221,974.795776 
	C643.658081,980.734314 643.612671,980.982544 637.541199,982.787903 
	C625.541870,986.355957 627.519348,986.929871 624.252258,975.869690 
	C619.677551,960.382385 615.070007,944.902710 610.226624,929.498352 
	C608.990173,925.565613 609.822449,923.870483 613.807617,922.685120 
	C626.418152,918.934265 626.466370,918.723633 635.093994,928.719971 
	C641.247925,935.850281 648.424500,942.020996 654.410095,949.458679 
	C650.258789,940.322327 647.624817,930.749817 644.801636,921.237427 
	C642.748779,914.320618 642.697754,914.330627 649.346741,912.221985 
	C651.250000,911.618408 653.164734,911.050720 655.454956,910.344238 
z"/>
<path fill="#000000" opacity="1.000000" stroke="none" 
	d="
M172.833313,197.620483 
	C174.447525,201.294708 174.572662,204.807983 174.283813,208.293228 
	C173.948669,212.337158 175.937912,213.290924 179.402374,212.677292 
	C181.039429,212.387329 182.666351,212.038666 184.294708,211.701401 
	C186.183807,211.310120 186.718414,210.144897 186.141418,208.381195 
	C185.727707,207.116577 185.164658,205.885529 184.894943,204.592209 
	C184.298065,201.730011 180.713654,199.404037 182.352203,196.376389 
	C184.531540,192.349503 187.904419,189.107544 191.675720,185.898544 
	C197.033264,191.950729 198.418533,199.249359 200.988342,205.788818 
	C202.954086,206.055573 204.040771,204.794678 205.409576,204.296265 
	C207.257889,203.623245 209.083557,200.540390 210.996658,202.961197 
	C213.508026,206.139023 216.629364,209.318649 216.884125,213.657074 
	C216.998062,215.597519 214.645126,216.470215 213.034561,217.203110 
	C206.052109,220.380554 200.626450,224.397186 198.859589,232.803116 
	C197.660004,238.510056 192.896408,242.767075 188.281418,246.378296 
	C182.376923,250.998566 175.650925,252.650299 168.667191,249.103271 
	C161.816513,245.623856 157.506882,240.009064 157.872650,231.976181 
	C158.063293,227.789490 156.546097,225.825180 152.701614,224.272400 
	C144.560699,220.984344 140.490570,214.675186 140.730331,207.057236 
	C140.971420,199.397141 146.333755,192.103546 153.872925,189.181381 
	C160.863205,186.471970 168.135544,189.595413 172.833313,197.620483 
M177.698059,233.914597 
	C181.865799,233.768478 184.770340,232.076920 185.838074,227.420303 
	C181.293060,227.078247 177.314743,227.917587 173.293747,228.538223 
	C172.955780,231.627136 174.400467,233.115326 177.698059,233.914597 
M161.709229,209.075760 
	C161.630753,207.923737 161.758636,206.708405 161.428955,205.633423 
	C160.824265,203.661789 159.696487,201.925964 157.364441,201.863419 
	C155.868088,201.823288 154.954025,202.990799 154.588257,204.329193 
	C153.848801,207.034988 155.456818,208.783478 157.450089,210.117188 
	C158.792618,211.015503 160.501907,212.880585 161.709229,209.075760 
z"/>
<path fill="#000000" opacity="1.000000" stroke="none" 
	d="
M77.317017,327.713074 
	C66.703514,322.589935 66.669594,322.573395 71.625214,312.408813 
	C74.177452,307.173798 76.683662,301.900970 79.556412,296.841522 
	C83.092575,290.613678 87.422295,284.725586 95.484940,284.935699 
	C103.710159,285.150085 108.802391,290.253998 111.823631,298.391144 
	C118.332947,293.725677 124.880295,293.580933 131.450470,297.745941 
	C138.432037,302.171692 141.061752,309.788666 138.653427,319.293121 
	C136.046188,329.582489 130.078308,338.379242 125.745621,347.903107 
	C124.400269,350.860382 122.335548,349.590179 120.325081,348.610840 
	C106.107292,341.685120 91.875717,334.787720 77.317017,327.713074 
M123.655228,319.037476 
	C124.227684,315.751862 123.523682,313.055908 120.115662,311.727997 
	C116.754417,310.418243 114.705650,312.399994 113.112076,314.880951 
	C111.957581,316.678284 111.160583,318.709320 110.249916,320.657532 
	C109.816566,321.584564 109.686829,322.491943 110.418846,323.434723 
	C114.167831,328.263092 120.089745,327.641113 122.588615,322.117249 
	C122.929939,321.362701 123.191910,320.572235 123.655228,319.037476 
M89.168076,308.454315 
	C88.346832,310.360748 86.644958,312.567719 89.831757,313.735809 
	C92.223366,314.612457 94.465424,317.798767 97.329552,315.257843 
	C100.373619,312.557343 100.583923,306.585358 98.067970,304.482635 
	C95.262367,302.137848 92.707642,303.128662 89.168076,308.454315 
z"/>
<path fill="#000000" opacity="1.000000" stroke="none" 
	d="
M919.055603,629.256714 
	C920.000977,625.235596 921.966980,624.716187 925.426575,625.898743 
	C942.290649,631.663025 959.197693,637.308472 976.171814,642.738708 
	C980.519165,644.129456 981.692444,646.003174 979.927307,650.349304 
	C976.861755,657.897217 975.154968,665.942444 971.542725,673.323547 
	C968.412659,679.719360 964.664490,685.736389 956.829285,685.890076 
	C949.276245,686.038086 943.504272,682.123779 940.238525,674.638733 
	C936.990540,676.246521 934.546692,678.904724 930.944641,679.426086 
	C920.913452,680.878113 911.473572,673.461365 910.705200,663.320984 
	C910.270325,657.581726 911.171448,652.060364 913.140564,646.647034 
	C915.188293,641.017395 917.008362,635.304932 919.055603,629.256714 
M937.787415,649.257935 
	C928.020630,645.583130 926.861511,646.153809 925.542236,655.083496 
	C925.253845,657.035095 925.647278,658.770935 926.857300,660.213562 
	C929.086853,662.871460 932.113403,663.956604 934.554749,661.176636 
	C937.320557,658.027222 939.506592,654.223328 937.787415,649.257935 
M960.589355,663.049438 
	C962.033264,659.790344 962.467102,656.807556 957.974121,655.789062 
	C955.858154,655.309448 953.423584,652.967773 951.729187,656.771301 
	C949.567993,661.622498 949.918640,665.153748 953.235962,666.855225 
	C956.819092,668.693054 958.824341,666.753845 960.589355,663.049438 
z"/>
<path fill="#000000" opacity="1.000000" stroke="none" 
	d="
M932.635620,465.271179 
	C930.867126,460.385834 932.295776,457.371857 936.388306,454.903168 
	C940.506348,452.419006 944.186584,449.219910 948.167236,446.492493 
	C950.116272,445.157074 950.728821,443.722229 949.958740,441.440765 
	C949.048340,438.743439 947.197083,439.719604 945.460999,439.997559 
	C941.519592,440.628601 937.557556,441.154358 933.643188,441.923004 
	C930.666809,442.507477 928.723511,441.891418 928.364014,438.545532 
	C928.293518,437.889038 927.998779,437.257355 927.921814,436.600769 
	C926.354187,423.230896 924.271179,425.232880 937.538757,423.034912 
	C953.445984,420.399689 969.402405,418.062836 985.324036,415.512482 
	C987.676270,415.135681 989.740479,414.794189 990.225464,417.904419 
	C991.761292,427.752991 994.258728,437.502533 994.115295,447.537567 
	C994.001465,455.495880 991.278137,462.486664 983.502502,465.907959 
	C975.259399,469.534912 966.926697,469.892487 959.656860,463.421204 
	C957.394104,461.407074 955.775391,461.653442 953.639038,463.369507 
	C947.833435,468.032745 941.928467,472.572235 935.792847,477.372009 
	C932.831055,473.581665 933.605469,469.401093 932.635620,465.271179 
M975.325134,435.358032 
	C973.683838,435.609680 972.041321,435.853638 970.401428,436.114227 
	C963.838196,437.157288 963.503906,437.722015 965.301086,444.151001 
	C966.325073,447.813995 968.155945,450.591492 972.373474,450.679199 
	C975.475403,450.743713 978.216309,449.616791 978.760864,446.323730 
	C979.404358,442.431854 980.637695,438.122070 975.325134,435.358032 
z"/>
<path fill="#000000" opacity="1.000000" stroke="none" 
	d="
M884.811279,248.866470 
	C876.085266,255.884811 866.923157,260.361450 855.623779,258.269226 
	C842.220337,255.787415 825.374939,237.161606 834.455078,217.911819 
	C839.844360,206.486633 848.858643,198.764725 860.929871,195.215012 
	C873.303650,191.576309 885.682922,197.093063 892.965820,208.711105 
	C900.200562,220.252213 899.264893,233.051086 890.354675,243.322723 
	C888.723938,245.202744 886.844177,246.866745 884.811279,248.866470 
M872.598755,235.109161 
	C875.030518,233.304581 876.972778,231.025024 878.579773,228.504349 
	C881.056519,224.619553 881.888306,220.603989 879.118347,216.403931 
	C876.338867,212.189438 872.234619,211.086594 867.786804,212.262482 
	C859.106995,214.557205 852.598267,219.859421 849.657593,228.464523 
	C847.000061,236.240997 853.530212,242.846741 861.558533,241.017532 
	C865.532166,240.112183 868.943726,238.135712 872.598755,235.109161 
z"/>
<path fill="#000000" opacity="1.000000" stroke="none" 
	d="
M152.289108,733.487244 
	C172.377335,746.930969 173.272369,770.136353 154.453186,784.553345 
	C146.061661,790.981934 136.881256,795.591675 125.840004,793.332825 
	C113.862289,790.882507 106.890015,782.709900 103.071495,771.731812 
	C99.438728,761.287842 102.403343,751.874146 109.688881,744.066406 
	C116.526749,736.738464 125.017479,731.854187 135.078766,730.155396 
	C141.073196,729.143311 146.630051,730.657227 152.289108,733.487244 
M146.049088,767.535278 
	C147.980057,765.660278 149.650436,763.603699 150.579208,761.030884 
	C153.168640,753.857971 147.709457,746.515564 140.129822,747.590393 
	C131.668503,748.790222 124.674553,753.110229 120.130554,760.391724 
	C115.474930,767.852051 120.460266,775.985291 129.278763,775.884277 
	C135.901550,775.808350 140.843430,772.151184 146.049088,767.535278 
z"/>
<path fill="#000000" opacity="1.000000" stroke="none" 
	d="
M330.729309,908.643982 
	C339.293335,902.123047 348.483368,901.498779 357.992096,904.600708 
	C364.299927,906.658508 370.372314,909.429749 376.590179,911.775391 
	C379.438446,912.849854 380.477417,914.362549 379.234741,917.446167 
	C372.215210,934.864380 365.290314,952.320862 358.391632,969.787415 
	C357.506073,972.029541 356.312256,973.131104 353.876526,972.081970 
	C345.196259,968.343262 335.897614,965.874634 328.197723,960.103394 
	C318.959015,953.178955 315.114624,944.021667 317.602722,932.553955 
	C319.581848,923.432007 323.225891,915.172363 330.729309,908.643982 
M338.091705,948.274597 
	C340.167938,950.162842 342.223694,952.090454 345.997925,952.140015 
	C349.851257,942.474731 353.806152,932.677612 357.650146,922.837158 
	C358.786469,919.928284 356.641174,919.582947 354.515686,919.220886 
	C348.576111,918.209412 343.377014,919.502136 340.334442,924.963379 
	C336.373718,932.072693 332.253632,939.394287 338.091705,948.274597 
z"/>
<path fill="#000000" opacity="1.000000" stroke="none" 
	d="
M510.670868,54.708591 
	C511.020935,46.588326 511.447998,38.944038 511.649475,31.293806 
	C511.727264,28.339436 512.860229,26.815218 515.831726,27.197409 
	C522.939087,28.111546 530.132812,27.420824 537.238403,28.676090 
	C557.467651,32.249771 562.998230,45.301586 562.736816,61.651207 
	C562.705078,63.632561 562.266846,65.617722 561.911194,67.581955 
	C559.094910,83.136871 549.178162,91.667397 533.317749,92.312325 
	C526.302917,92.597572 519.361084,91.568115 512.377869,91.344582 
	C508.601898,91.223701 508.719452,88.628098 508.859161,86.074814 
	C509.422546,75.775299 510.052429,65.479416 510.670868,54.708591 
M543.630554,65.755226 
	C543.684387,61.768436 544.012756,57.761749 543.725586,53.799675 
	C543.326355,48.291756 539.646729,44.435753 534.510742,43.406353 
	C531.190491,42.740879 529.014343,43.414616 528.837158,47.392632 
	C528.437927,56.355171 527.900269,65.311768 527.382324,74.268669 
	C527.203735,77.358177 528.852783,77.878647 531.472412,77.544846 
	C538.081482,76.702675 541.905884,72.900894 543.630554,65.755226 
z"/>
<path fill="#000000" opacity="1.000000" stroke="none" 
	d="
M565.382568,931.107788 
	C569.461914,930.629395 573.112427,930.341736 576.728760,929.817993 
	C580.116089,929.327332 581.701599,930.748779 582.026184,934.034302 
	C583.873596,952.734070 585.732910,971.432800 587.643005,990.126282 
	C587.845032,992.103210 587.357117,993.595459 585.308105,993.792786 
	C575.075012,994.778625 564.821045,997.147461 554.546265,994.742615 
	C540.822510,991.530518 533.563660,981.426819 532.739136,965.085022 
	C531.715698,944.801697 542.082275,933.128845 562.474854,931.585205 
	C563.301270,931.522644 564.117676,931.328369 565.382568,931.107788 
M550.994507,959.156311 
	C550.435120,962.663025 551.005859,966.159241 551.641174,969.539062 
	C552.999084,976.763000 558.204773,980.946838 564.749390,980.780457 
	C567.376465,980.713562 568.776611,979.967773 568.435913,976.947937 
	C567.413574,967.886536 566.520630,958.809753 565.670715,949.730164 
	C565.369019,946.506775 563.709656,945.932007 560.891602,946.650940 
	C555.254395,948.088989 552.111816,951.772644 550.994507,959.156311 
z"/>
<path fill="#000000" opacity="1.000000" stroke="none" 
	d="
M852.210144,855.863892 
	C853.270325,857.346741 854.669434,858.586426 853.401978,860.106201 
	C850.299011,863.827026 846.537109,866.894287 842.598328,869.649048 
	C840.847351,870.873596 839.642029,868.827148 838.564941,867.645813 
	C835.105042,863.851807 831.699463,860.008118 827.790649,855.645203 
	C826.408508,860.757019 827.575745,865.245056 828.674683,869.231567 
	C831.127258,878.128418 828.840820,884.620300 821.153748,889.454712 
	C819.521484,890.481201 818.481323,892.494873 816.050232,892.426636 
	C813.969482,890.251221 814.935608,887.411072 814.614136,884.891052 
	C813.878296,879.123230 813.106018,873.335083 812.888794,867.534912 
	C812.741516,863.603638 811.371521,861.523804 807.508362,860.422668 
	C797.274536,857.505432 787.124939,854.289429 776.968384,851.107422 
	C775.132019,850.532104 772.962891,850.489380 771.226746,847.885864 
	C775.415039,844.159180 779.205688,839.844299 784.044617,836.646301 
	C785.645569,835.588257 787.252136,836.664307 788.808350,837.170349 
	C795.687012,839.406738 802.565063,841.644836 809.448730,843.884094 
	C811.524475,836.637634 807.354797,832.678162 803.578247,828.448853 
	C798.866577,823.172363 798.917419,823.070740 804.002747,818.383423 
	C813.217590,809.889832 811.484497,810.405212 819.334290,819.175354 
	C830.206665,831.322327 841.101318,843.449402 852.210144,855.863892 
z"/>
<path fill="#000000" opacity="1.000000" stroke="none" 
	d="
M261.015350,100.970642 
	C276.353546,113.795952 291.348328,126.486465 306.470612,139.023270 
	C309.769958,141.758545 310.341217,143.787933 306.123657,145.885345 
	C305.531982,146.179581 305.011353,146.615662 304.454498,146.980988 
	C295.551392,152.822052 295.551147,152.822037 287.523468,146.049866 
	C287.269165,145.835342 287.060211,145.510818 286.769135,145.404419 
	C280.757507,143.206863 278.315094,149.303528 273.953827,150.979279 
	C271.473907,151.932129 271.309052,153.767105 272.190979,156.274185 
	C275.516846,165.729233 275.423004,165.761887 267.050507,171.223206 
	C266.074493,171.859833 265.056091,172.442444 264.136536,173.152603 
	C261.257935,175.375671 259.807739,174.404160 258.888062,171.152802 
	C253.633621,152.576981 248.334763,134.013382 242.943405,115.476936 
	C242.009644,112.266472 242.614410,110.121857 245.610138,108.409447 
	C249.218033,106.347099 252.623718,103.932426 256.132996,101.695419 
	C257.530029,100.804886 258.921295,99.735840 261.015350,100.970642 
M261.502075,126.167503 
	C262.997131,130.156784 264.492218,134.146057 266.061981,138.334686 
	C269.085297,137.054749 271.636566,136.010986 272.975067,134.028030 
	C268.576324,129.218842 264.389343,124.641167 260.202362,120.063499 
	C260.011139,120.180824 259.819916,120.298157 259.628693,120.415482 
	C260.186829,122.095871 260.744995,123.776260 261.502075,126.167503 
z"/>
<path fill="#000000" opacity="1.000000" stroke="none" 
	d="
M892.302124,726.085876 
	C894.143066,722.910950 895.553589,719.851196 897.468018,717.148376 
	C899.778381,713.886414 898.827515,711.785400 895.883301,709.754456 
	C894.251343,708.628601 892.846619,707.166809 891.374512,705.818054 
	C890.161133,704.706360 889.610168,703.401611 890.494873,701.811768 
	C892.895996,697.496399 895.301392,693.183472 897.549805,689.148193 
	C900.391846,689.228455 901.387512,690.952393 902.620850,692.204895 
	C915.706360,705.493652 928.674866,718.898926 941.868896,732.078552 
	C944.628540,734.835083 944.988647,737.070557 942.922974,740.278809 
	C940.856079,743.489014 939.134644,746.934998 937.433105,750.362671 
	C936.164734,752.917542 934.596069,754.075684 931.527954,753.437622 
	C911.979126,749.372498 892.399109,745.457214 872.834595,741.466614 
	C872.058167,741.308289 871.335022,740.888733 869.511169,740.162476 
	C872.435852,735.053894 875.057129,730.157104 878.016785,725.474182 
	C879.083801,723.786072 881.044189,725.030579 882.651306,725.187134 
	C885.811768,725.494812 888.666016,728.310913 892.302124,726.085876 
M914.363403,726.278198 
	C913.042114,725.423401 912.139832,723.726379 910.054565,724.146851 
	C908.612000,726.294067 906.979065,728.362488 906.862366,731.495056 
	C912.624756,733.748047 918.559265,735.107666 924.832153,735.613220 
	C921.509583,732.655090 918.187012,729.696899 914.363403,726.278198 
z"/>
<path fill="#000000" opacity="1.000000" stroke="none" 
	d="
M266.049988,869.797852 
	C272.753662,859.062073 272.745575,859.075012 283.186890,865.597168 
	C290.391510,870.097595 297.569580,874.644653 304.866425,878.991455 
	C307.994965,880.855103 309.033966,882.546692 306.801239,886.068726 
	C296.992493,901.541809 287.368042,917.133240 277.832764,932.776855 
	C275.982513,935.812439 274.315643,936.043335 271.444366,934.204529 
	C262.328156,928.366638 253.141678,922.632324 243.858582,917.064392 
	C240.596680,915.107910 239.903488,913.360352 242.093307,909.946533 
	C248.734619,899.592957 246.706772,901.185059 256.070435,906.557312 
	C259.102844,908.297180 262.112640,910.105957 264.966034,912.119446 
	C267.480652,913.893921 268.774811,912.810974 270.157990,910.680847 
	C271.575836,908.497253 272.541107,906.610779 269.635803,904.849426 
	C265.932770,902.604431 262.313965,900.220520 258.611115,897.975220 
	C256.125275,896.467896 255.772842,894.879883 257.319275,892.242981 
	C262.809296,882.881836 262.715576,882.827698 271.913147,888.215332 
	C272.631866,888.636292 273.363953,889.034424 274.082703,889.455383 
	C281.321564,893.694275 281.321136,893.695007 285.364807,885.059326 
	C279.893799,881.618958 274.309570,878.135071 268.758179,874.599548 
	C267.137573,873.567322 264.923401,872.824219 266.049988,869.797852 
z"/>
<path fill="#000000" opacity="1.000000" stroke="none" 
	d="
M771.276428,101.688698 
	C775.839417,104.498154 780.059326,107.174072 784.349915,109.731537 
	C786.827637,111.208450 787.412720,112.719078 785.683899,115.366501 
	C778.564392,126.268974 781.244202,125.532425 770.792969,119.307236 
	C767.100708,117.107956 763.447693,114.842804 759.860901,112.658958 
	C754.096985,118.517937 754.137634,119.026634 760.405029,123.082420 
	C761.243652,123.625160 762.090271,124.156242 762.944336,124.674385 
	C772.880005,130.702011 772.818176,130.656982 766.098816,140.157440 
	C764.480835,142.445175 763.006653,142.775284 760.732605,141.284561 
	C757.391357,139.094299 753.846130,137.205627 750.576599,134.918503 
	C747.365112,132.671967 745.645203,133.849640 743.846497,136.799057 
	C742.123718,139.623901 742.078674,141.475372 745.205994,143.267975 
	C749.970520,145.999039 754.523560,149.096237 759.227112,151.937454 
	C761.730652,153.449707 762.174622,155.026779 760.535645,157.631882 
	C753.257263,169.200211 755.839966,167.454681 745.721252,161.474625 
	C737.696350,156.731979 729.931763,151.549911 721.928162,146.769623 
	C718.946106,144.988541 718.576660,143.390610 720.447571,140.422134 
	C730.213928,124.926140 739.864014,109.355446 749.390991,93.711090 
	C751.342529,90.506416 753.124573,90.155853 756.158875,92.214287 
	C760.977173,95.482941 766.016907,98.425179 771.276428,101.688698 
z"/>
<path fill="#000000" opacity="1.000000" stroke="none" 
	d="
M977.000610,367.077515 
	C977.177490,367.608704 977.221069,367.769470 977.272400,367.927734 
	C980.623840,378.260101 980.291199,378.716827 969.356995,381.224915 
	C966.851379,381.799683 965.626160,381.086365 964.853516,378.783325 
	C963.160645,373.737671 961.251282,368.761963 959.662415,363.685089 
	C958.712402,360.649719 957.230652,359.778107 954.119263,360.814178 
	C951.132812,361.808685 950.042847,363.145996 951.287842,366.279388 
	C952.760498,369.985718 953.795166,373.864258 955.207642,377.596985 
	C956.352844,380.623138 955.415710,382.218292 952.399109,383.177979 
	C940.596619,386.932770 942.896851,388.026154 938.775208,376.748199 
	C937.701660,373.810699 937.129883,370.656006 935.436768,368.136047 
	C934.863098,367.996429 934.518799,367.795532 934.236023,367.860870 
	C925.894287,369.789246 925.889954,369.795258 928.685913,377.962830 
	C930.139709,382.210022 931.600342,386.455017 933.089050,390.690033 
	C933.880066,392.940216 933.416931,394.284058 930.987122,395.332611 
	C920.348572,399.923370 920.285706,399.987640 916.520508,389.171783 
	C913.513794,380.534851 910.724487,371.820465 907.600220,363.227142 
	C906.302063,359.656464 906.923767,357.769989 910.716248,356.510742 
	C928.079041,350.745605 945.387817,344.816254 962.682556,338.848938 
	C965.764038,337.785736 967.289368,338.731506 968.276611,341.698914 
	C971.059082,350.061951 973.995300,358.373840 977.000610,367.077515 
z"/>
<path fill="#000000" opacity="1.000000" stroke="none" 
	d="
M638.361511,56.903511 
	C636.752136,59.098183 634.896057,58.330357 633.159363,57.944771 
	C628.296387,56.865063 623.430176,55.788662 618.604309,54.557800 
	C615.303833,53.716026 614.125793,55.305595 613.496948,58.211601 
	C612.882141,61.052662 613.621765,62.599388 616.633667,63.156822 
	C620.716980,63.912560 624.750122,64.941360 628.802063,65.864754 
	C631.298096,66.433563 632.272766,67.680603 631.833252,70.504852 
	C630.093445,81.684814 630.192688,81.701477 619.246948,79.358238 
	C617.783447,79.044952 616.327393,78.696732 614.862122,78.392212 
	C609.797058,77.339554 607.072144,79.800804 607.564209,84.894440 
	C607.784668,87.176727 609.623779,87.257286 611.164185,87.631485 
	C616.653625,88.965057 622.144653,90.305916 627.674988,91.451431 
	C630.641235,92.065842 631.482056,93.537132 630.764771,96.415054 
	C627.546204,109.329018 629.273926,107.085907 618.220825,104.907173 
	C609.254395,103.139763 600.365784,100.981369 591.418884,99.109856 
	C587.572815,98.305328 586.376404,96.682076 587.368103,92.491699 
	C591.462891,75.189690 595.248657,57.811825 598.907166,40.411209 
	C599.798706,36.170616 601.581970,35.008041 605.754395,36.050117 
	C615.427490,38.466000 625.180481,40.563908 634.909119,42.754795 
	C641.211792,44.174152 641.389526,44.413944 639.911377,50.740345 
	C639.457764,52.681519 638.978455,54.616673 638.361511,56.903511 
z"/>
<path fill="#000000" opacity="1.000000" stroke="none" 
	d="
M71.457970,381.424255 
	C71.918106,379.760345 72.234962,378.464905 72.617256,377.189087 
	C75.325539,368.150879 78.746185,366.929626 87.214127,371.744659 
	C89.623573,373.114746 89.125977,374.870300 88.569954,376.873199 
	C87.323563,381.362854 86.120659,385.864838 84.947769,390.374237 
	C84.833893,390.812103 85.052742,391.336456 85.131783,391.930756 
	C87.618736,393.322052 90.285957,394.031464 93.838570,394.313171 
	C95.563759,388.321198 97.571121,382.357819 98.944145,376.251831 
	C99.987488,371.611847 102.135925,370.889099 106.393448,372.223358 
	C115.242752,374.996674 115.285019,374.819977 112.672386,383.898407 
	C110.049309,393.013092 107.316071,402.099609 104.913078,411.272369 
	C103.944183,414.970917 102.399048,416.184753 98.565910,415.045868 
	C81.171265,409.877747 63.736671,404.841431 46.276787,399.897797 
	C42.814228,398.917389 41.798923,397.423462 42.904133,393.822174 
	C45.981129,383.795807 48.861588,373.702942 51.525723,363.559113 
	C52.610947,359.427124 54.336048,358.154449 58.607014,359.528931 
	C68.763733,362.797546 68.203362,361.423950 65.231438,371.531067 
	C63.927498,375.965607 62.722015,380.429108 61.505508,384.759583 
	C68.555580,388.694214 69.241295,388.460510 71.457970,381.424255 
z"/>
<path fill="#000000" opacity="1.000000" stroke="none" 
	d="
M745.521729,927.572937 
	C751.261963,939.262634 751.697693,936.574219 741.110779,942.098022 
	C733.291931,946.177490 725.312073,949.951538 717.537842,954.111755 
	C714.057373,955.974304 712.242737,955.297607 710.614807,951.734497 
	C705.872803,941.354858 705.035645,943.584961 714.866455,938.440430 
	C718.949219,936.303833 723.346313,934.706970 726.974304,931.884583 
	C724.790344,924.009338 724.470276,923.854736 717.684875,927.188782 
	C716.788757,927.629089 715.899414,928.083252 714.998108,928.512512 
	C703.883667,933.807190 706.728271,935.366760 700.288025,923.104553 
	C698.989319,920.631897 699.545715,919.129150 702.029114,917.947266 
	C705.934448,916.088623 709.716370,913.970276 713.624939,912.118774 
	C717.469604,910.297546 715.537842,907.933533 714.495911,905.525513 
	C713.382874,902.953125 711.967163,901.886292 709.114990,903.414673 
	C704.277954,906.006958 699.238953,908.223083 694.409485,910.828369 
	C691.494080,912.401123 689.577454,912.216919 688.023438,909.021423 
	C682.547729,897.761658 681.756836,900.246216 692.389282,894.708618 
	C700.653503,890.404358 709.103455,886.455505 717.350281,882.119324 
	C720.654053,880.382141 722.302979,881.109131 723.906921,884.377991 
	C730.944275,898.720276 738.186279,912.962097 745.521729,927.572937 
z"/>
<path fill="#000000" opacity="1.000000" stroke="none" 
	d="
M93.477173,666.260986 
	C99.873444,669.929321 103.872322,675.195923 106.077057,681.664795 
	C107.474022,685.763672 109.490517,686.376160 113.107376,684.530762 
	C115.617432,683.250183 118.488571,682.648315 120.929878,681.268188 
	C125.340218,678.775085 127.312737,680.526428 129.090637,684.679932 
	C133.687332,695.418762 133.865067,695.438477 123.092522,699.973694 
	C108.215141,706.237000 93.276764,712.355408 78.373383,718.557129 
	C76.296204,719.421387 74.206757,720.482178 73.024323,717.447754 
	C69.644066,708.773315 65.099564,700.549683 62.803387,691.458618 
	C60.763168,683.380920 61.206413,675.496460 68.049805,669.926392 
	C75.411011,663.934875 83.879677,661.450256 93.477173,666.260986 
M78.848671,693.546143 
	C79.767532,695.293457 79.771484,698.269409 83.046509,697.017517 
	C86.289238,695.777954 89.461121,694.351257 92.651390,692.977295 
	C93.866821,692.453857 94.431664,691.565002 94.012306,690.194336 
	C92.913383,686.602417 91.314064,683.356201 87.572968,681.865479 
	C84.471764,680.629639 81.631332,681.557983 79.296188,683.664490 
	C76.261169,686.402466 77.369263,689.673035 78.848671,693.546143 
z"/>
<path fill="#000000" opacity="1.000000" stroke="none" 
	d="
M328.019226,132.586090 
	C320.288025,114.695511 312.798828,97.075768 305.196777,79.504852 
	C303.894043,76.493782 304.141449,74.542458 307.448212,73.234764 
	C314.720032,70.359039 321.799530,66.944321 329.189209,64.430626 
	C343.406403,59.594463 353.080048,63.734459 358.232178,76.284248 
	C362.832275,87.489265 357.890198,98.877396 345.682373,105.203087 
	C337.653320,109.363464 337.755798,109.323624 341.091766,117.899345 
	C345.069702,128.125412 346.883118,126.422119 335.668915,131.174576 
	C333.357391,132.154175 331.141174,134.276001 328.019226,132.586090 
M338.777954,92.252388 
	C343.218262,87.982025 343.736664,84.693237 340.613129,80.610123 
	C338.329346,77.624725 333.672211,77.414246 328.823608,80.145782 
	C323.643524,83.064064 328.653229,86.061371 328.805695,89.022491 
	C328.813568,89.175560 328.942963,89.320656 329.008057,89.472763 
	C331.817291,96.036621 331.817200,96.036667 338.777954,92.252388 
z"/>
<path fill="#000000" opacity="1.000000" stroke="none" 
	d="
M933.727844,314.956848 
	C921.206299,320.651886 910.402466,317.208923 903.114075,305.482758 
	C898.318420,297.767181 898.318359,297.767273 890.686340,302.062500 
	C881.431091,307.271271 881.431030,307.271271 876.100037,298.016876 
	C872.314758,291.445770 872.347595,291.506317 879.178528,287.807312 
	C894.242126,279.650238 909.325317,271.525909 924.271362,263.157562 
	C927.955872,261.094604 929.771790,261.750397 931.592224,265.421356 
	C935.574707,273.452301 940.872681,280.828552 943.662231,289.456055 
	C947.343567,300.841888 944.324707,308.728607 933.727844,314.956848 
M922.030945,284.978851 
	C919.393372,286.382416 916.777100,287.828003 914.111755,289.176758 
	C911.824585,290.334167 911.515503,291.832397 912.789490,294.020111 
	C914.061768,296.204803 915.417297,298.269135 917.605652,299.611359 
	C920.955688,301.666046 924.069519,300.654175 926.807739,298.452789 
	C929.761658,296.078033 929.630676,292.690338 928.059814,289.844971 
	C926.894836,287.734711 927.497070,283.044098 922.030945,284.978851 
z"/>
<path fill="#000000" opacity="1.000000" stroke="none" 
	d="
M426.885254,40.765041 
	C440.866699,49.066772 441.767578,68.243561 428.942688,77.488281 
	C424.822601,80.458229 420.213623,82.375916 415.219940,83.196892 
	C412.000763,83.726135 411.018707,85.135986 411.958252,88.348808 
	C413.031250,92.017960 413.572784,95.839317 414.542450,99.542908 
	C415.314606,102.492111 414.222198,103.957954 411.375397,104.517189 
	C394.723511,107.788391 398.473389,109.847054 394.938019,95.021561 
	C391.424500,80.287964 388.376251,65.443520 384.873749,50.707157 
	C383.847595,46.389797 384.650360,44.261993 389.349457,43.528034 
	C398.206329,42.144661 406.686462,38.707447 415.812958,38.667233 
	C419.527466,38.650864 423.130249,39.002190 426.885254,40.765041 
M408.731842,54.075836 
	C406.489166,54.428928 404.153473,54.871140 405.193085,57.992630 
	C406.483490,61.867073 405.378510,66.604683 409.287903,69.538979 
	C409.395630,69.619827 409.616943,69.592606 409.773193,69.559189 
	C413.318573,68.800911 417.168610,68.413322 419.126770,64.802467 
	C420.628357,62.033543 420.508911,58.899597 418.836487,56.271828 
	C416.582916,52.731014 413.002411,53.126999 408.731842,54.075836 
z"/>
<path fill="#000000" opacity="1.000000" stroke="none" 
	d="
M99.193687,593.928772 
	C105.730347,604.558350 106.721741,615.386108 102.576309,626.756470 
	C101.233307,630.440125 99.322159,632.058228 95.569908,629.542175 
	C94.473167,628.806885 93.244278,628.212769 92.000336,627.763184 
	C88.113564,626.358398 86.574783,624.405945 88.208267,619.880127 
	C89.711128,615.716187 89.831802,611.039185 88.143166,606.655640 
	C87.476639,604.925415 86.613869,603.212708 84.345467,603.245544 
	C81.977394,603.279785 81.363937,605.030457 81.005898,606.916138 
	C80.230942,610.997681 79.552635,615.098206 78.732208,619.170288 
	C76.527321,630.114258 70.777542,636.456787 62.291592,637.400635 
	C52.733841,638.463684 44.406078,633.150330 40.179905,622.967834 
	C36.834240,614.906799 37.144814,606.752991 40.263973,598.643005 
	C41.308281,595.927673 42.830017,594.874084 45.570992,596.550171 
	C46.703648,597.242798 47.877205,597.955566 49.129520,598.350159 
	C54.125488,599.924011 56.174755,602.753479 53.891029,607.988098 
	C52.771698,610.553833 53.511646,613.254883 54.322800,615.812317 
	C54.880081,617.569397 55.585552,619.509399 57.846184,619.435547 
	C60.037762,619.364014 60.932320,617.483398 61.310326,615.688965 
	C62.166412,611.625000 62.962582,607.529358 63.430523,603.406616 
	C64.441696,594.497681 68.202583,587.892761 77.484474,585.576294 
	C86.493668,583.327881 93.415016,586.680359 99.193687,593.928772 
z"/>
<path fill="#000000" opacity="1.000000" stroke="none" 
	d="
M663.851929,110.015594 
	C665.919861,90.956604 667.958618,72.342430 670.061951,53.139233 
	C675.948792,54.715744 680.833374,56.715950 685.508362,59.140884 
	C688.168701,60.520821 687.177551,63.169308 686.803467,65.432350 
	C684.664307,78.371658 682.508972,91.308296 681.205688,104.651962 
	C684.315796,100.293259 687.397156,95.913681 690.542603,91.580696 
	C695.431824,84.845566 700.440186,78.195396 705.238403,71.396614 
	C706.941528,68.983391 708.620667,68.066589 711.487610,69.427399 
	C715.494934,71.329514 719.858154,72.490234 723.286316,74.673363 
	C723.763062,76.373688 723.141602,77.180824 722.513306,77.953331 
	C710.121216,93.189507 697.651306,108.363297 685.386719,123.701294 
	C683.162415,126.482948 681.146484,126.820122 678.141235,125.396523 
	C674.988770,123.903221 671.747131,122.497101 668.406860,121.526566 
	C664.075439,120.268066 662.326660,117.896584 663.632507,113.443604 
	C663.906006,112.510841 663.769958,111.457947 663.851929,110.015594 
z"/>
<path fill="#000000" opacity="1.000000" stroke="none" 
	d="
M227.485443,822.361389 
	C231.835190,826.002747 235.840103,829.507935 239.885681,832.965576 
	C241.776382,834.581543 242.252625,836.263367 241.103516,838.656494 
	C232.608215,856.348206 224.213242,874.088135 215.771973,891.805786 
	C215.279221,892.840027 214.872070,893.986450 212.707596,894.810608 
	C209.066147,891.530762 204.920959,888.058350 201.110367,884.251160 
	C199.296936,882.439392 201.160751,880.502380 202.071045,878.822937 
	C208.174240,867.563110 214.332428,856.333130 220.464005,845.088562 
	C220.756195,844.552795 220.965820,843.971924 221.534363,842.688782 
	C216.787735,844.905884 213.552429,847.995850 209.931931,850.486084 
	C202.393143,855.671570 194.824097,860.816589 187.391693,866.151245 
	C184.680450,868.097290 182.465118,868.532227 180.018875,865.875488 
	C177.135788,862.744263 173.077347,860.757690 170.996979,857.022461 
	C171.523193,854.853577 173.258621,854.334900 174.621521,853.490356 
	C190.459579,843.676147 206.311630,833.884460 222.184280,824.126282 
	C223.699097,823.194946 225.109390,821.826904 227.485443,822.361389 
z"/>
<path fill="#000000" opacity="1.000000" stroke="none" 
	d="
M871.720276,766.879517 
	C889.646667,773.448059 899.430420,787.092590 898.280701,803.487671 
	C897.459961,815.191284 888.435242,826.033081 877.358215,828.847778 
	C873.936462,829.717163 871.843018,829.061279 871.388306,825.226807 
	C871.173218,823.413147 870.854248,821.586670 870.334106,819.839966 
	C869.525330,817.123657 870.246643,815.710571 873.000549,814.477051 
	C882.389893,810.271179 884.535706,802.056763 878.549133,793.659119 
	C875.061218,788.766418 870.264893,785.427612 864.487488,783.778381 
	C857.174866,781.691040 851.059021,785.876282 848.904419,793.879089 
	C848.348022,795.945862 849.356018,799.156128 846.309387,799.811646 
	C842.756104,800.576111 839.000305,800.886230 835.420532,800.092529 
	C833.481262,799.662659 833.883606,797.395020 833.743652,795.783142 
	C832.405579,780.365723 850.052185,760.590820 871.720276,766.879517 
z"/>
<path fill="#000000" opacity="1.000000" stroke="none" 
	d="
M788.741333,194.275513 
	C785.691650,191.660873 782.993469,189.174210 780.118652,186.911911 
	C777.316833,184.707001 777.004944,182.820892 779.540955,179.959488 
	C791.352722,166.632355 803.086792,153.232101 814.596008,139.643951 
	C817.716492,135.959763 819.864868,135.931030 823.420776,139.068039 
	C832.319641,146.918671 832.460754,146.762741 824.615051,155.817078 
	C817.531616,163.991714 810.528503,172.238373 803.310486,180.292435 
	C800.803650,183.089615 801.064270,184.983658 803.877502,187.261948 
	C807.754211,190.401398 811.352356,193.882462 815.167908,197.100815 
	C817.299194,198.898499 817.184082,200.361496 815.503479,202.532562 
	C808.598267,211.452591 808.663269,211.512131 800.326355,204.324646 
	C796.544312,201.063995 792.785095,197.776810 788.741333,194.275513 
z"/>
<path fill="#000000" opacity="1.000000" stroke="none" 
	d="
M458.748932,929.870972 
	C464.049652,933.366455 466.180817,937.659607 464.840027,942.085266 
	C463.485962,946.554810 460.717224,949.762024 455.780640,950.188538 
	C451.478455,950.560242 448.006470,949.019409 445.749115,945.079834 
	C443.395905,940.972900 443.871643,936.981140 446.441956,933.351562 
	C449.379547,929.203247 453.555206,928.165771 458.748932,929.870972 
z"/>
<path fill="#000000" opacity="1.000000" stroke="none" 
	d="
M950.337830,542.679688 
	C955.978333,550.972229 952.910950,559.294861 944.230164,560.242615 
	C939.470947,560.762207 935.596313,559.131348 933.362244,554.835754 
	C931.254089,550.782227 931.902527,546.573853 934.770447,543.211365 
	C937.860718,539.588196 942.134888,538.892456 946.627930,540.419006 
	C947.853210,540.835327 948.917358,541.726318 950.337830,542.679688 
z"/>
</svg>